<?xml version="1.0" encoding="UTF-8"?>
<svg id="Calque_2" data-name="Calque 2" xmlns="http://www.w3.org/2000/svg" viewBox="0 0 430.35 420.27">
  <defs>
    <style>
      .cls-1 {
        fill: #fff;
        fill-rule: evenodd;
      }
    </style>
  </defs>
  <g id="Calque_1-2" data-name="Calque 1">
    <path class="cls-1" d="M198.37,348.84h2.51c1.62.83,2.43,2.91,2.6,2.51,3.58,1.86,7.11.13,8.37,1.59,2.52,2.87,1.32,6.29,1.67,8.46,3.1-.51,4.91-.96,8.37-1.67,0,.2,0-.36,0-1.67-1.37-.46-.19.94-.92-2.51.56,0,1.12,0,.92,0,1.85.15,3.9,1.2,6.62.84v4.94h7.54c1.48-2.51,2.06-3.73,5.11-4.94,2.1.49,11.81,2.32,16.75,0,3.22.07,6.56-2.72,7.54-3.43,2.44-.69,4.55.75,4.94.08,1.48,1.07,19.65-.1,21.77-1.67,1.26.27,1.56-2.09,2.51-3.35,1.76.47,5.02.2,7.54-.08.56-1.12,1.12-2.23,1.67-3.35,2.79-.28,5.58-.56,8.37-1.59,5.05-2.39,8.05-9.61,12.56-14.23,5.54-4,14.76-5.33,18.42-12.56.28-1.48.56-3.71.84-5.95,1.46-2.86,6.47-5.65,7.62-8.37,1.87-3.07,2.99-6.14,4.1-9.96.7-.15,2.6.69,3.35-.08,1.93-1.99-.81-6.73.08-9.96,1.68-.64,7.76-3.03,9.13-5.86v-2.6c2.28-5.39,7.22-11.23,8.46-16.75,2.02-3.5-.07-7.32,0-9.96,0,0,3.11-.53,3.27-.92,1.78-4.56-.13-8.58,1.67-13.4,1.18-3.16,3.98-8.1,5.02-12.48,1.69-5.13,1.3-27.4,0-32.74-1.66-6.85,1.87-11.75,0-18.42-2.01-7.16-5.89-15.37-5.86-25.87,0-1.4-3.91-14.02-6.7-16.83-1.31-1.32-4.93-.87-5.86-2.51-1.1-1.94-.87-9.57-2.51-13.31-3-4.69-9.79-7.88-14.15-13.4.47-.64.2-2.04-.08-3.43-.7-.8-2.63-.8-3.35-1.67-4.41-5.34-7.83-8.32-13.4-13.31-2.39-1.06-3.47-4.97-5.86-7.54-1.65-.5-9.12-4.73-10.05-3.43-.79-.97-7.54-10.89-7.54-10.89-5.63-3.53-12.7-2.89-19.26-5.86-1.95-.88-3.4-4.15-5.02-5.02-1.95-.28-3.91-.56-6.62-1.59-1.47-.32-5.04-3.43-7.62-4.27-1.51-.49-6.03,1.27-9.96,0-.08-.84-1.67-2.43-2.51-2.51-2.32-.84-5.39-2.43-9.21-2.51-9.83-2.73-19.65.35-29.31,2.51-2.32-.28-5.39-.56-8.46-1.59-3.91,1.62-12.33,2.83-16.66,4.1-1.4.77-6.15.25-10.13,1.67-5.69,2.03-13.61,5.62-20.01,7.54h-5.11c-8.32,4.08-18.69,7.85-26.71,13.4-.73,1.13-1.84,3.98-4.19,5.02-1.48.08-3.71,1.67-5.95,2.51-1.73,1.44-2.19,4.54-4.94,5.86-1.76.08-5.02,1.67-7.54,2.51-3.71,2.89-7.12,8.14-11.72,10.97-1.04,2.42-4.48,3.03-6.7,4.94-4.95,7.45-12.38,24.2-15.99,32.74h-2.51c-.67,7.76-3.74,5.36-7.45,9.13-.58,1.69.26,3.9-1.67,5.86-.61,2.26-3.79,5.07-5.86,7.54-.24,1.86-2.21,5.37-3.35,5.95,1.03,1.67,1.31,4.1.84,5.78-.68,4.09-5.28,8.25-6.78,10.97-3.03,7.73-2.74,16.33-4.94,21.77-1.29,9.51-.28,30.98.84,38.43,1.15,1.59,3.21,6.1,2.51,6.78.79,1.78-.76,2.91-.84,4.94,1.2,1.34,3.54,2.88,3.35,4.19,2.59,4.24,3.92,10.53,4.19,14.23v8.46c2.09,6.64,2.01,14.71,3.35,20.85,2.56,5.3,8.39,10.39,10.05,14.32.47,3.82.2,6.89-.84,9.96,1.67,2.75,6.09,5.6,6.62,7.62.54,3.6-3.82,8.1-2.43,11.72,2.3,3.91,5.09,2.93,5.02,7.54,1.38,1.65,1.26,1.55.84,2.51h2.51c4.08,5.31,8.59,7.73,11.72,10.89,1.03,1.87,1.31,2.99.84,3.35,1.66,1.58,3.34.61,4.1,1.59,2.44,3.15-.17,7.39.92,10.97,1.02,1.38,9.85,10.09,10.05,10.05,7.09,5.5,20.85,8.41,20.93,17.58,3.78,5.33,3.94,16.27,2.43,20.01-.28.28-.56.56-1.59.08-2.49-.57-4.06.7-8.37-.08-1.71-.54-3.93-3.5-6.7-4.94-3.42-.66-8.39,1.61-12.56-.84-7.92-3.54-14.92-13.38-25.2-15.99v-2.51c-10.84-3.63-25.5-27.11-31.82-37.6-1.16-1.04-.31-4.23-2.43-6.7-.36.47-1.48.2-2.6-.84-2.19-1.6-1.93-6.19-4.94-8.46h-2.51c.47-1.12.2-2.23-.84-4.1.2,0-.36,0-1.67,0-.55-.73-.53-2.7-2.51-5.02-.08.47-1.67.2-2.51-.84-.36-2.6-1.48-6.7-3.35-10.05-1.11-2.81-5.23-7.88-7.54-11.81.47-1.95.2-3.91-.84-6.62-.17-.78-2.71-2.33-4.19-4.27-.18-2.51.15-5.48,0-7.45-.64-1.58-2.67-6.94-3.43-10.89-.23-.22,1.55-.72.08-2.6-.08-.56-1.67-1.12-2.51-2.43-3.44-9.02,1.41-32.64-.08-45.22-.37-2.14-2.69-9.3-4.1-13.48.17-3.66,3.29-9.42,4.1-13.31,1.3-4.28.35-11.77.08-15.99,2.49-.31,2.36-.2,2.51-.84,5.12-1.7,9.09-5.37,8.37-12.48-3.91-5.6,2.58-15.71,2.51-21.77h4.19c2.86-2.59,4.12-3.24,3.35-10.05.47.47.2.2-.84-.08,4.69-.48,4.82-.71,4.19-5.78,3.48-3.28.13-6.26.84-10.97,1.25-1.59,4.83-4.11,4.19-5.86.83-1.17-1.2-5.17-.84-7.54,3.22-5.22,8.09-8.28,8.37-15.83,2.49.44,2.36.55,2.51-.08,3-2.42,7.15-9.53,4.94-13.4,2.23-1.67,4.47-4.1,5.95-5.02v-4.94c2.51-1.2,5.78-3.15,7.54-5.86,6.73-7.17,12.3-14.88,18.42-21.85,4.31-3.62,9.29-5.15,12.56-8.37,3.54-2.23,7.19-8.9,9.96-10.05,1.39-.86,3.79,0,5.11-.84,4.35-1.45,8.58-5.36,11.72-6.7,11.92-3.84,22.92-6.61,32.66-10.8,8.5-1.79,19.35.68,25.12-.92,23.08-5.47,56-12.37,81.22-4.19,9.37,2.72,23.06-1.21,29.31.08,5.39,2.11,8.28,7.94,11.72,9.96,4.02,1.58,5.18-.7,7.54,0,3.25.57,6.1,3.46,7.54,3.43.84.47,2.43.2,2.51-.08,3.03.95,5.19,4.86,7.45,5.11,5.8,3.31,9.24,2.55,15.07,4.94,6.01,2.47,11.89,9.34,19.26,10.89.16,1.95.16,2.37.08,3.35,5.51,10.68,20.77,13.64,23.36,25.96,8.47,1.3,20.59,21.75,23.45,29.31.56,2.6,1.12,6.7,1.67,10.05,1.12.08,2.23,1.67,3.35,2.51,2.41,4.32,4.24,14.03,5.86,17.67v7.54h1.67c4.09,7.96,5.51,20.47,6.7,26.8.92,6.19,5.52,13.97,5.02,18.34-.62,5.48-3.9,7.62-5.02,10.97-1.61,6.62,1.08,10.01,0,14.99-.41,1.88-2.08,5.79-2.51,6.78-.28,5.5-.56,10.24-.84,14.99-.71,1.46-3.57,3.16-4.19,5.02-.92,2.8.49,7.68.84,8.46,1.62,7.9-.63,11.64-3.35,15.83-1.63,2.51-.55,3.59-4.1,5.02-.99,1.2-2.23.53-3.43,1.76,2.94,2.17,2.71,4.74,2.51,9.13-2.12.32-1.32-.49-1.67,2.51-.94,1.48.2,4.68-.84,5.95-1.08,2.86-3.88,2.87-5.02,5.02-1.62-.51-1.71-1.02-4.19-2.51-1,5.76-2.22,1.76-2.51,8.29,1.95.25,2.07.38,2.6.08-.53,4.1-1.96,7.05-3.43,9.96-1.47-.53-.81-.16-1.67-1.59-.74-.37-1.22-3.81-1.67-5.86-1.99.76-3.13-.8-5.02-.08-1.48,1.6-2.69,6.57-1.67,8.37.69,2.48.37,2.29,2.51,2.6.96-.45,3.21.41,4.19,2.51-5.31,1.97-2.12,3.73-5.02,5.86-.82,1.56-5.09,2.93-5.86,3.35v4.19c-.38,1.35-2.88,1.84-4.1,2.43-4.81,6.94-9.2,16.11-15.99,21.77-1.95,1.62-4.15,2.27-7.54,2.51v2.6c-5.85,3.61-6.03,10.73-13.4,11.72v2.51c-5.33.83-20.06,12.36-22.61,17.58-28.77.94-53.47,17.54-83.73,9.21h-11.64c-.73.27-4.46-2.2-5.95-3.35-4.23-.36-13.04,3-17.58-.08-.28-.84-.56-2.43-1.59-3.27-.99,1.78-3.02,2.06-5.95-.08-.56-1.12-1.12-2.23-1.67-4.1h-5.02c-.56-.36-1.12-1.48-2.43-3.35-1.76-.08-5.02-1.67-7.54-2.51-2.48-1.56-8.26-8.23-15.16-8.46v-2.51c-6.44-.17-2.31-2.55-6.62-5.78-2.16-1.28-3.59,1.34-7.54-1.67-.36-1.2-1.48-3.15-2.6-5.86-4.77-2.52-11.46-3.1-16.66-7.54-.39-.2-.7-2.36-2.51-3.43-2.23-3.03-6.16.06-8.37-5.02-1.91-.51-3.54-1.52-6.7-2.51-.64-3.35-2.04-7.45-4.19-10.8-1.37.69-2.36.65-3.43-.08-4.07-5.3-4.67-11.85-7.54-18.42-.37-.86-2.46-5.74-4.1-7.45-.14-.2-2.78.28-3.43-.92v-7.45c-1.21-2.9-3.19-4.07-4.1-10.89h-2.51c.03-8.58-2.93-16.64-5.86-25.96-1.39-7.67,2.9-34.7,4.94-41.03,2.58-6.3,1.83-18.96,5.02-28.47,2.17-5.22,7.52-10.79,10.05-16.83.28-2.23.56-4.47.08-7.45,1.87-2.34,5.47-5.57,5.86-8.46v-5.02c1.22-.66,8.09-4.66,8.37-5.86,5.97-6.04,10.27-20.1,20.1-20.85,2.1-1.68,3.42-2.79,5.86-3.43v-3.35c4.22-1.43,5.4-5.53,7.54-7.54,4.57-2.64,8.25-.62,13.31-2.51,3.93-1.47,7.44-5.1,10.13-7.45,5.53-1.47,11.76,2.26,14.99-.08,2.97-2.16,4.55-6.71,7.62-8.37,4.73-1.73,10.66,1.08,11.64.08,1.91.27,2.75-1.76,5.11-.92,8.67-3.31,18.24-1.76,25.12-2.51,2.95-.22,10.89-2.5,14.15-1.59.2.86,1.09,3.07.92,2.51,3.84,1.79,13.24-.09,17.58,1.59,2.11.45,4.41,2.96,5.78,3.35,1.95-.28,3.91-.56,5.86-1.59l2.6,4.1c4.42,2.02,9.4.09,12.48,2.51,3.71,2.91,11.58,8.87,18.42,10.89,3.71,1.09,4.93-1.34,8.37-1.67,1.32,5.22,4.37,11.59,9.21,12.64,1.95,1.03,3.91,1.31,5.86.84,3.13,3.21,4.1,10.2,6.7,12.56.76,1.66,2.5.79,3.35.84,2.98,3.55,5.71,11.38,8.37,14.99.08.28,1.67.56,2.51.84v5.11c1.9,6.31,6.55,15.06,8.37,20.85.7,2.23-.22,7.57.08,10.97,2.45,7.38,5.3,17.53,2.51,23.36-1.92,7.67,4.33,15.54,0,22.69-.37,3.23-4.92,5.59-5.95,7.54v7.54c-.84,1.31-2.43,1.87-2.51,2.43-2.45,4.93-2.09,11.62-5.86,14.32-1.21,1.86-4,1.18-5.02,2.43-.28.92-.56,3.35-.84,5.02-2.32,4.04-7.24,6.26-9.13,10.97h-2.51c-2.14,5.47-6.35,11.04-12.56,13.31v2.51h-2.6c-3.72,6.81-27.03,23.29-34.25,25.2-2.38,2.05-8.08.94-10.05,1.59-1.46,1.19-4.37,4.85-7.54,5.11-6.7,3.88-37.98,6.43-41.87,5.02-8.15-1.1-12.96-7.16-19.34-11.72-2.12-.51-3.71.3-5.86-.92-3.32-1.88-6.34-5.97-9.21-8.37-1.4-.28-2.79-.56-4.94-1.59-.64-.92-2.04-3.35-4.19-4.27-1.48-.84-3.71-2.43-5.95-2.51-2.65-2.06-1.09-6.85-4.1-9.96-.75-.82-3.85-.72-5.86-3.35-.9-1.72.51-4.58-1.67-7.62-.64-1.4-2.04-2.79-3.43-4.94v-3.35c-1.14-1.94-4.79-5.75-6.62-8.46v-11.64c-3.05-10.85-.14-26.79,2.51-38.6,1.03-4.19,1.31-9.13,1.59-13.31.08.2,1.67-.36,2.51-1.67,2.71-4.32,2.94-9.67,5.11-14.32,3.06-3.67,6.49-4.76,7.45-10.05h5.02c2.47-4.16,8.43-8.55,8.46-10.89,1.69-1.66,1.25-1.51,0-3.35,10.73-2.6,15.24-13.2,25.96-15.91,2.51.28,5.78.56,7.54.84,4.94-.28,9.13-.56,12.56-.84,3.82.65,7.74,3.34,10.05,3.43,7.69,2.67,12.79,2.81,19.18,4.1,4.34,8.2,12.56,14.84,15.16,22.69v10.05c4.36,16.59-2.67,32.84-8.46,43.54-7.04,1.2-4.27,4.71-10.8,5.02.71.78-10.13,2.43-10.13,2.43l-.84-.84c14.08-9.07,25.41-25,15.16-47.65-.9-3.07-.36-5.55-2.6-8.46-1.77-2.3-5.43-2.22-7.54-4.19-.95-.89-.72-3.3-1.67-4.94-2.72-1.77-12.98-5.42-18.42-4.27-1.53.32-5.54,1.46-9.13.84-15.77-3.64-38.39,11.99-44.46,21.02-3.13,5.8-.47,9.08-2.43,13.31.18,2.02-2.76,5.43-4.19,7.54-.16,2.86,1.55,15.4,1.67,17.67,1.71,4.07,5.33,8.74,5.02,11.64,3.17,15.79,13.02,34.77,25.04,43.54,2.23.28,4.47.56,6.7.08,1.12,1.87,2.23,2.99,2.6,3.35h4.94c6.73,3.87,12.42,11.91,20.18,12.56,4.86,1.43,10.45-1.91,12.56-2.6,3.65-.7,10.46,3.28,11.64,2.51.28-.84.56-2.43.08-2.51,2.97-1.03,8.24-.51,9.96-1.59,1.12-1.2,2.23-3.15,2.6-5.86,1.67,1.03,4.1,1.31,5.02,1.59,2.59-2.97,4.25-5.56,5.02-9.96,4.4.64,15.18-2.35,17.5-5.86,1.56-1.1.61-3.64,1.76-5.11,5.08-3.34,9.63-6.21,12.48-10.89,1.22-2.01.41-4.58,1.67-7.45,1.72-2.12,5.38-5.59,5.95-10.05v-4.27c2.09-2.32,6.4-2.52,7.45-6.62.61-1.16-1.03-1.58-.84-3.35,4.38-21.97,2.23-46.37-6.62-66.15h-2.51v-3.35c-4.47-1.27-4.77-8.58-10.05-10.97-2.75-1.85-5.22-.23-9.29-2.43-2.59-.17-3.23-2.89-5.02-5.02-1.67.47-4.1.2-5.02-.08-3.34-2.88-2.49-9.58-5.02-13.4-.06-.08-10.84-10.02-10.89-10.8-5.9-2.54-15.6.1-21.77-3.43-.47-.27-2.04-3.07-2.51-4.1-8.27-4.19-28.31-3.11-35.92,1.59-1.23-.28-10.76.37-12.64.92-.63,1.65-.5,1.55-.84,2.51-8.97,2.04-16.52,8.61-24.2,10.89-1.2,1.03-3.15,1.31-5.11,1.59-.28,1.12-.56,2.23-1.59,3.35-2.89,3.32-9.48,3.88-13.48,5.95-6.33,5.22-10.91,14.14-15.83,20.85-3.21,6.38-11.1,11.54-15.07,18.42-8.82,20.46-15.78,54.56-8.37,82.9v7.54c3.61,10.04,12.27,30.8,17.58,37.68,4.91,4.71,12.5,6.15,13.4,13.4,6.47.98,10.22,5.78,14.23,8.37v2.51c8.24,1.24,5.56,3.68,9.13,7.54,1.2,1.29,3.67,1.33,5.02,2.51,6.56,5.74,12.76,14.61,24.28,14.32v3.35"/>
  </g>
</svg>